# xmcd
#
# Track frame offsets:
#	150
#	14090
#	29029
#	44047
#	60173
#	77920
#	96408
#	111076
#	128169
#	144167
#	166748
#	187826
#	202664
#
# Disc length: 2878 seconds
#
# Revision: 0
# Processed by: cddbd v1.5.2PL0 Copyright (c) Steve Scherf et al.
# Submitted via: audiograbber 1.83.01
#
DISCID=a90b3c0d
DTITLE=Jim Allchin - Q.E.D.
DYEAR=2013
DGENRE=Blues
TTITLE0=Stop and Go
TTITLE1=Gettin Old
TTITLE2=Chime Blues
TTITLE3=Reap What You Sow
TTITLE4=Trust Me Feat. Mycle Wastman
TTITLE5=Thinking of You
TTITLE6=Trash
TTITLE7=Runnin Away
TTITLE8=Tried and True
TTITLE9=Drownin
TTITLE10=Evil Minded Woman
TTITLE11=Come on Home
TTITLE12=No Way Out
EXTD=
EXTT0=
EXTT1=
EXTT2=
EXTT3=
EXTT4=
EXTT5=
EXTT6=
EXTT7=
EXTT8=
EXTT9=
EXTT10=
EXTT11=
EXTT12=
PLAYORDER=
